<?xml version="1.0" encoding="utf-8"?>
<!-- Generator: Adobe Illustrator 25.1.0, SVG Export Plug-In . SVG Version: 6.00 Build 0)  -->
<svg version="1.1" id="flat_orange" xmlns="http://www.w3.org/2000/svg" xmlns:xlink="http://www.w3.org/1999/xlink" x="0px"
	 y="0px" viewBox="0 0 559.1 547" style="enable-background:new 0 0 559.1 547;" xml:space="preserve">
<style type="text/css">
	.st0{fill:#EE496E;}
</style>
<g>
	<path class="st0" d="M553,350.2c3.4-6.4,6.6-16,3.3-26.3c-3.3-10.4-10.7-16.9-16-20.6c-0.8-5.7-2.8-14-7.8-21
		c-6.6-9.2-16.5-13.5-21.2-15.2c-8.8-6.6-17-8.8-24.2-6.3c-19.2,6.6-17.7,28.1-16.6,45.4c1.4,20.8,1.3,33.8-10.7,38.6
		c-4.8,1.9-11.1,0.3-17.5-4.5c-10.7-8.1-13.9-23.5-7.4-36.1C452.8,270,475,227.3,475,186.5c0-50.8-21.2-98.2-59.6-133.4
		C378.4,18.9,329.9,0,279.5,0s-98.9,18.9-136,52.9C105.2,88.2,84,135.6,84,186.4c0,40.9,22.2,83.5,40.1,117.8
		c6.6,12.5,3.4,28-7.3,36.1c-6.4,4.8-12.7,6.4-17.5,4.5c-8-3.2-12.8-7.4-10.7-38.6c1.1-17.3,2.5-38.7-16.6-45.4
		c-7.2-2.5-15.5-0.3-24.2,6.3c-4.7,1.6-14.6,6-21.2,15.2c-5,7-7,15.3-7.8,21c-5.4,3.6-12.8,10.2-16,20.6c-3.3,10.3,0,20,3.3,26.3
		c-3.9,6.3-8,16.1-5.1,27.1c2.6,10,9.5,16.5,15.2,20.3l0,0c-1.2,10.6,2.4,21.2,9.9,28.9c6.2,6.5,14.7,10.4,23.7,10.6
		c2.7,8.1,9,14.4,17.1,17.1c3.8,1.4,7.8,2.1,11.9,2.1c-16.1,9.4-30.4,18.8-30.4,38.2c0,13.1,6.8,24.4,19.2,31.5l0,0
		c2.3,1.3,4.7,2.5,7.1,3.4c3.1,5.4,7.6,9.8,13,12.9c5.4,3.1,11.5,4.7,17.7,4.6c9.8,0.1,19.2-3.2,26.9-9.2c9.3,3.9,19.5,5,29.4,3.4
		c11-1.8,21.2-7.2,28.7-15.4c8.4,2.8,21.5,4.4,36.3-3.8c12.5-7,18.7-16,21.6-22.4c0.3-0.6,0.5-1.2,0.8-1.8
		c9.7,0.1,19.2-2.8,27.1-8.5c1.2-0.8,2.3-1.7,3.3-2.7c1,1,2.1,1.9,3.3,2.7c7.9,5.6,17.4,8.6,27.1,8.5c0.2,0.6,0.5,1.2,0.8,1.8
		c2.9,6.4,9.1,15.4,21.6,22.4c14.8,8.2,27.9,6.6,36.3,3.8l0,0c7.6,8.2,17.7,13.7,28.7,15.5c9.9,1.6,20.1,0.5,29.3-3.4
		c7.7,6,17.2,9.2,26.9,9.1c6.2,0.1,12.3-1.5,17.7-4.6c5.4-3.1,9.9-7.5,13-12.9c1.6-0.6,3.1-1.3,4.5-2.1
		c14.1-7.1,21.9-18.8,21.9-32.9c0-19.4-14.4-28.9-30.4-38.2c4,0,8.1-0.8,11.9-2.1c8-2.7,14.3-9,17-17.1c9-0.2,17.5-4.1,23.7-10.6
		c7.5-7.6,11.1-18.2,9.9-28.9c5.7-3.8,12.6-10.3,15.2-20.3C561,366.3,557,356.5,553,350.2L553,350.2z M488.8,494.5
		c0,3.9-1.1,9-9.8,13.4c-8,4-20,6.2-34.8,6.2c-4,0-8.1-0.2-12.3-0.5l0,0c-0.5-0.2-1.1-0.3-1.7-0.4c-1-0.2-2-0.2-3.1,0
		c-17-1.8-33.7-5.4-49.9-10.7c-0.9-0.6-1.9-0.9-3-1.2c-0.3-0.1-0.6-0.1-0.9-0.1c-17.1-5.9-33.4-13.8-46.9-23.1l0,0
		c-0.6-0.6-1.2-1.2-1.9-1.7c-0.7-0.5-1.4-0.9-2.2-1.2c-19.2-14.2-32-31.7-32-51.2l0,0c0-6-4.9-10.9-10.9-10.9s-10.9,4.9-10.9,10.9
		c0,10.9-4.6,30.8-31.9,51.2c-0.8,0.3-1.6,0.7-2.2,1.2c-0.7,0.5-1.4,1.1-1.9,1.8c-3.2,2.2-6.8,4.5-10.6,6.7
		c-11.5,6.6-23.6,12.1-36.1,16.4c-0.3,0-0.6,0.1-0.9,0.1c-1.1,0.2-2.2,0.7-3.2,1.2c-16.1,5.3-32.8,8.9-49.6,10.6
		c-1.1-0.2-2.2-0.2-3.3,0c-0.6,0.1-1.2,0.2-1.8,0.4c-20.8,1.5-38.4-0.8-48.5-6.6c-7.3-4.2-8.3-8.9-8.3-12.6
		c0-7.4,6.2-11.6,22.7-21.1c21.7-12.5,51.4-29.7,70.6-73.7c2.4-5.5-0.1-12-5.7-14.4c-5.5-2.4-12,0.1-14.4,5.7
		c-7.7,17.6-17.2,30.1-27.3,39.6c-5-0.3-10-0.9-15-1.9c-0.5-0.1-1-0.2-1.5-0.3c-6.3-1.3-12.6-3.1-18.6-5.4c-4.7-1.8-9.3-4-13.6-6.5
		c-0.3-0.4-0.7-0.7-1.1-1c-1-0.8-2.1-1.3-3.3-1.7c-10-6.5-18.2-15.3-23.9-25.8c-0.1-0.2-0.2-0.4-0.2-0.7l0,0
		c-0.3-0.6-0.6-1.1-0.9-1.7c-5.2-10.6-7.8-22.2-7.5-34c0-0.5,0-1.1,0-1.6c0.8-22.8,11.1-41.3,15.1-47.7
		c8.7-13.7,16.9-19.4,19.9-20.6c2.6,2.6,1.8,14.7,1.3,22.8c-0.7,10.1-1.4,21.7,0.9,32.1c3.1,13.7,11,23.2,23.5,28.2
		c12,4.8,26.2,2.1,38.8-7.4c19.1-14.4,25-41.8,13.6-63.6c-16.7-32.1-37.6-72.1-37.6-107.6c0-44.6,18.6-86.3,52.5-117.4
		c33.1-30.3,76.3-47.2,121.2-47.2s88.1,16.8,121.2,47.2c33.9,31.1,52.5,72.8,52.5,117.4c0,35.5-20.8,75.5-37.6,107.6
		c-11.4,21.9-5.6,49.2,13.6,63.6c12.6,9.5,26.7,12.2,38.8,7.4c12.5-5,20.4-14.5,23.5-28.2c2.4-10.5,1.6-22,0.9-32.1
		c-0.5-8.2-1.3-20.3,1.3-22.8c3,1.1,11.2,6.8,19.9,20.6c5.5,8.8,22.6,39.9,11.6,73.7l0,0c-1.1,3.4-2.5,6.7-4.1,10
		c-0.2,0.4-0.5,0.8-0.7,1.2l-0.2,0.6l0,0c-5.7,10.6-13.9,19.5-24,26c-1.2,0.4-2.3,0.9-3.3,1.7c-0.4,0.3-0.8,0.7-1.2,1
		c-4.4,2.5-8.9,4.7-13.6,6.5c-11.2,4.2-23.1,6.8-35.1,7.5c-10.1-9.5-19.7-22-27.3-39.6c-2.4-5.5-8.9-8.1-14.4-5.7s-8.1,8.9-5.7,14.4
		c19.2,44,48.9,61.2,70.6,73.7C482.6,482.9,488.8,487.1,488.8,494.5L488.8,494.5z"/>
</g>
<path class="st0" d="M386.7,232.6c-0.5-3.5-6.8-4.5-6.9-4.6c-7.9-1-14.7-1.8-21.1-2.2c-9.5-0.6-18-0.9-25.8-0.9
	c-11.2,0-21.3,0.6-31.1,1.8c-7,0.9-14.7,1.6-22.2,1.8c-7.7-0.1-15.3-1-22.4-1.8c-9.7-1.2-19.9-1.8-31.1-1.8
	c-7.9,0-16.3,0.3-25.8,0.9c-6.4,0.4-13.2,1.1-21.1,2.2c-0.1,0-6.4,1-6.9,4.6c-0.4,2.6-0.7,7.3,1.5,10.2c3,3.7,4.3,7.3,4.6,11.7
	c0.4,9.2,3,18.1,7.7,26.5c4.6,8.2,11.7,13,21,14.4c6.3,0.9,12.4,1.3,18.3,1.3c5.8,0,11.5-0.4,17-1.3c13-2.1,22.1-9.4,26.1-21.3
	c2.1-6.2,3.5-12.7,4.9-18.9c0.4-1.7,0.7-3.5,1.1-5.2c0.9-4,2.3-4.8,5-4.9c2.7,0.1,4.1,0.8,5,4.8c0.4,1.7,0.7,3.5,1.1,5.2
	c1.3,6.3,2.7,12.7,4.9,18.9c4,11.8,13,19.2,26,21.3c5.5,0.9,11.2,1.3,17,1.3c5.8,0,12-0.4,18.3-1.3c9.4-1.3,16.4-6.1,21-14.4
	c4.7-8.4,7.3-17.3,7.7-26.5c0.2-4.5,1.6-8,4.6-11.7C387.4,240,387.1,235.2,386.7,232.6L386.7,232.6z"/>
</svg>
